<?xml version="1.0" encoding="UTF-8"?>
<svg width="16px" height="16px" viewBox="0 0 16 16" version="1.1" xmlns="http://www.w3.org/2000/svg" xmlns:xlink="http://www.w3.org/1999/xlink">
    <title>1E36D1C3-B8FD-471C-9788-D29086F4BFDC</title>
    <g id="Dribbble" stroke="none" stroke-width="1" fill="none" fill-rule="evenodd" opacity="0.200000003">
        <g id="Desktop-HD" transform="translate(-712.000000, -4332.000000)" fill="#000000">
            <g id="Footer-CTA" transform="translate(0.000000, 3691.000000)">
                <g id="Group-35" transform="translate(663.000000, 641.000000)">
                    <path d="M52,0 L62,0 C63.6568542,0 65,1.34314575 65,3 L65,13 C65,14.6568542 63.6568542,16 62,16 L52,16 C50.3431457,16 49,14.6568542 49,13 L49,3 L49,3 C49,1.34314575 50.3431457,0 52,0 L52,0 Z M60,10.4615385 L61.5555556,10.4615385 L62,8.3846154 L60,8.3846154 L60,7 C59.8945007,6.4134096 60.0596079,5.99253257 60.8888889,6.0769231 L62,6.0769231 L62,4 C61.8117941,4.05809766 61.1662545,4 60.4444444,4 C58.847054,4 57.7735002,4.99412139 57.7777778,6.7692308 L57.7777778,8.3846154 L56,8.3846154 L56,10.4615385 L57.7777778,10.4615385 L57.7777778,16 L60,16 L60,10.4615385 Z" id="Shape"></path>
                </g>
            </g>
        </g>
    </g>
</svg>