<?xml version="1.0" encoding="UTF-8"?>
<svg width="58px" height="58px" viewBox="0 0 58 58" version="1.1" xmlns="http://www.w3.org/2000/svg" xmlns:xlink="http://www.w3.org/1999/xlink">
    <title>Group 8</title>
    <defs>
        <linearGradient x1="0%" y1="0%" x2="100%" y2="100%" id="linearGradient-1">
            <stop stop-color="#F2C314" offset="0%"></stop>
            <stop stop-color="#FC3832" offset="100%"></stop>
        </linearGradient>
        <path d="M17.9471964,-2.53875649e-15 L32.0528036,-1.08858006e-15 C38.2934348,6.32496366e-16 40.5564384,0.649779278 42.8379199,1.86992893 C45.1194014,3.09007857 46.9099214,4.88059859 48.1300711,7.16208008 C49.3502207,9.44356156 50,11.7065652 50,17.9471964 L50,32.0528036 C50,38.2934348 49.3502207,40.5564384 48.1300711,42.8379199 C46.9099214,45.1194014 45.1194014,46.9099214 42.8379199,48.1300711 C40.5564384,49.3502207 38.2934348,50 32.0528036,50 L17.9471964,50 C11.7065652,50 9.44356156,49.3502207 7.16208008,48.1300711 C4.88059859,46.9099214 3.09007857,45.1194014 1.86992893,42.8379199 C0.649779278,40.5564384 1.33465826e-15,38.2934348 -2.29706042e-15,32.0528036 L-1.33027613e-15,17.9471964 C7.72928744e-16,11.7065652 0.649779278,9.44356156 1.86992893,7.16208008 C3.09007857,4.88059859 4.88059859,3.09007857 7.16208008,1.86992893 C9.44356156,0.649779278 11.7065652,1.47509063e-15 17.9471964,-2.53875649e-15 Z" id="path-2"></path>
        <filter x="-14.0%" y="-10.0%" width="128.0%" height="128.0%" filterUnits="objectBoundingBox" id="filter-3">
            <feOffset dx="0" dy="2" in="SourceAlpha" result="shadowOffsetOuter1"></feOffset>
            <feGaussianBlur stdDeviation="2" in="shadowOffsetOuter1" result="shadowBlurOuter1"></feGaussianBlur>
            <feColorMatrix values="0 0 0 0 0.501960784   0 0 0 0 0.125490196   0 0 0 0 0  0 0 0 0.15 0" type="matrix" in="shadowBlurOuter1"></feColorMatrix>
        </filter>
    </defs>
    <g id="Dribbble" stroke="none" stroke-width="1" fill="none" fill-rule="evenodd">
        <g id="Desktop-HD" transform="translate(-691.000000, -1278.000000)">
            <g id="Features" transform="translate(170.000000, 915.000000)">
                <g id="Group-9-Copy" transform="translate(400.000000, 365.000000)">
                    <g id="Group-8" transform="translate(125.000000, 0.000000)">
                        <g id="Rectangle-9">
                            <use fill="black" fill-opacity="1" filter="url(#filter-3)" xlink:href="#path-2"></use>
                            <use fill="url(#linearGradient-1)" fill-rule="evenodd" xlink:href="#path-2"></use>
                        </g>
                        <g id="machine-learning" transform="translate(14.000000, 12.000000)" fill="#FFFFFF" fill-rule="nonzero">
                            <path d="M10.5540541,21.4183366 L10.5540541,18.737219 C9.4536702,18.5343872 8.6216216,17.5949465 8.6216216,16.4666667 C8.6216216,15.9990583 8.7645372,15.5638855 9.0102398,15.2001421 L6.6891892,13.5382649 L4.3681386,15.2001421 C4.6138411,15.5638855 4.7567568,15.9990583 4.7567568,16.4666667 C4.7567568,16.9376348 4.6117801,17.3756996 4.3628266,17.7410206 L9.6422663,21.7911171 C9.9109927,21.6092414 10.2201711,21.4798806 10.5540541,21.4183366 Z M11.4459459,21.4183366 C11.7798289,21.4798806 12.0890073,21.6092414 12.3577337,21.7911171 L17.6371734,17.7410206 C17.3882199,17.3756996 17.2432432,16.9376348 17.2432432,16.4666667 C17.2432432,15.9990583 17.3861589,15.5638855 17.6318614,15.2001421 L15.3108108,13.5382649 L12.9897602,15.2001421 C13.2354628,15.5638855 13.3783784,15.9990583 13.3783784,16.4666667 C13.3783784,17.5949465 12.5463298,18.5343872 11.4459459,18.737219 L11.4459459,21.4183366 Z M12.9844482,22.414535 C13.2334017,22.779856 13.3783784,23.2179207 13.3783784,23.6888889 C13.3783784,24.9652803 12.3135421,26 11,26 C9.6864579,26 8.6216216,24.9652803 8.6216216,23.6888889 C8.6216216,23.2179207 8.7665983,22.779856 9.0155518,22.414535 L3.7361121,18.3644385 C3.3511251,18.625 2.8831126,18.7777778 2.3783784,18.7777778 C1.0648363,18.7777778 0,17.7430581 0,16.4666667 C0,15.3383869 0.8320486,14.3989461 1.9324324,14.1961143 L1.9324324,11.8038857 C0.8320486,11.6010539 0,10.6616131 0,9.5333333 C0,8.2569419 1.0648363,7.2222222 2.3783784,7.2222222 C2.8831126,7.2222222 3.3511251,7.375 3.7361121,7.6355615 L9.0155518,3.585465 C8.7665983,3.220144 8.6216216,2.7820793 8.6216216,2.3111111 C8.6216216,1.0347197 9.6864579,0 11,0 C12.3135421,0 13.3783784,1.0347197 13.3783784,2.3111111 C13.3783784,2.7820793 13.2334017,3.220144 12.9844482,3.585465 L18.2638879,7.6355615 C18.6488749,7.375 19.1168874,7.2222222 19.6216216,7.2222222 C20.9351637,7.2222222 22,8.2569419 22,9.5333333 C22,10.6616131 21.1679514,11.6010539 20.0675676,11.8038857 L20.0675676,14.1961143 C21.1679514,14.3989461 22,15.3383869 22,16.4666667 C22,17.7430581 20.9351637,18.7777778 19.6216216,18.7777778 C19.1168874,18.7777778 18.6488749,18.625 18.2638879,18.3644385 L12.9844482,22.414535 Z M3.74131,14.5724228 L5.9374248,13 L3.74131,11.4275772 C3.4713755,11.6113082 3.1603622,11.7419444 2.8243243,11.8038857 L2.8243243,14.1961143 C3.1603622,14.2580556 3.4713755,14.3886918 3.74131,14.5724228 Z M4.3681386,10.7998579 L6.6891892,12.4617351 L9.0102398,10.7998579 C8.7645372,10.4361145 8.6216216,10.0009417 8.6216216,9.5333333 C8.6216216,8.4050535 9.4536702,7.4656128 10.5540541,7.262781 L10.5540541,4.5816634 C10.2201711,4.5201194 9.9109927,4.3907586 9.6422663,4.2088829 L4.3628266,8.2589794 C4.6117801,8.6243004 4.7567568,9.0623652 4.7567568,9.5333333 C4.7567568,10.0009417 4.6138411,10.4361145 4.3681386,10.7998579 Z M18.25869,14.5724228 C18.5286245,14.3886918 18.8396378,14.2580556 19.1756757,14.1961143 L19.1756757,11.8038857 C18.8396378,11.7419444 18.5286245,11.6113082 18.25869,11.4275772 L16.0625752,13 L18.25869,14.5724228 Z M17.6371734,8.2589794 L12.3577337,4.2088829 C12.0890073,4.3907586 11.7798289,4.5201194 11.4459459,4.5816634 L11.4459459,7.262781 C12.5463298,7.4656128 13.3783784,8.4050535 13.3783784,9.5333333 C13.3783784,10.0009417 13.2354628,10.4361145 12.9897602,10.7998579 L15.3108108,12.4617351 L17.6318614,10.7998579 C17.3861589,10.4361145 17.2432432,10.0009417 17.2432432,9.5333333 C17.2432432,9.0623652 17.3882199,8.6243004 17.6371734,8.2589794 Z M9.6370683,14.5724228 C10.0230373,14.309713 10.492992,14.1555556 11,14.1555556 C11.507008,14.1555556 11.9769627,14.309713 12.3629317,14.5724228 L14.5590464,13 L12.3629317,11.4275772 C11.9769627,11.690287 11.507008,11.8444444 11,11.8444444 C10.492992,11.8444444 10.0230373,11.690287 9.6370683,11.4275772 L7.4409536,13 L9.6370683,14.5724228 Z M11,10.9777778 C11.8209638,10.9777778 12.4864865,10.331078 12.4864865,9.5333333 C12.4864865,8.7355887 11.8209638,8.0888889 11,8.0888889 C10.1790362,8.0888889 9.5135135,8.7355887 9.5135135,9.5333333 C9.5135135,10.331078 10.1790362,10.9777778 11,10.9777778 Z M11,17.9111111 C11.8209638,17.9111111 12.4864865,17.2644113 12.4864865,16.4666667 C12.4864865,15.668922 11.8209638,15.0222222 11,15.0222222 C10.1790362,15.0222222 9.5135135,15.668922 9.5135135,16.4666667 C9.5135135,17.2644113 10.1790362,17.9111111 11,17.9111111 Z M19.6216216,10.9777778 C20.4425854,10.9777778 21.1081081,10.331078 21.1081081,9.5333333 C21.1081081,8.7355887 20.4425854,8.0888889 19.6216216,8.0888889 C18.8006578,8.0888889 18.1351351,8.7355887 18.1351351,9.5333333 C18.1351351,10.331078 18.8006578,10.9777778 19.6216216,10.9777778 Z M19.6216216,17.9111111 C20.4425854,17.9111111 21.1081081,17.2644113 21.1081081,16.4666667 C21.1081081,15.668922 20.4425854,15.0222222 19.6216216,15.0222222 C18.8006578,15.0222222 18.1351351,15.668922 18.1351351,16.4666667 C18.1351351,17.2644113 18.8006578,17.9111111 19.6216216,17.9111111 Z M2.3783784,10.9777778 C3.1993422,10.9777778 3.8648649,10.331078 3.8648649,9.5333333 C3.8648649,8.7355887 3.1993422,8.0888889 2.3783784,8.0888889 C1.5574146,8.0888889 0.8918919,8.7355887 0.8918919,9.5333333 C0.8918919,10.331078 1.5574146,10.9777778 2.3783784,10.9777778 Z M2.3783784,17.9111111 C3.1993422,17.9111111 3.8648649,17.2644113 3.8648649,16.4666667 C3.8648649,15.668922 3.1993422,15.0222222 2.3783784,15.0222222 C1.5574146,15.0222222 0.8918919,15.668922 0.8918919,16.4666667 C0.8918919,17.2644113 1.5574146,17.9111111 2.3783784,17.9111111 Z M11,25.1333333 C11.8209638,25.1333333 12.4864865,24.4866335 12.4864865,23.6888889 C12.4864865,22.8911443 11.8209638,22.2444444 11,22.2444444 C10.1790362,22.2444444 9.5135135,22.8911443 9.5135135,23.6888889 C9.5135135,24.4866335 10.1790362,25.1333333 11,25.1333333 Z M11,3.7555556 C11.8209638,3.7555556 12.4864865,3.1088557 12.4864865,2.3111111 C12.4864865,1.5133665 11.8209638,0.8666667 11,0.8666667 C10.1790362,0.8666667 9.5135135,1.5133665 9.5135135,2.3111111 C9.5135135,3.1088557 10.1790362,3.7555556 11,3.7555556 Z" id="Shape"></path>
                        </g>
                    </g>
                </g>
            </g>
        </g>
    </g>
</svg>