<?xml version="1.0" encoding="UTF-8"?>
<svg width="58px" height="58px" viewBox="0 0 58 58" version="1.1" xmlns="http://www.w3.org/2000/svg" xmlns:xlink="http://www.w3.org/1999/xlink">
    <title>Group 8</title>
    <defs>
        <linearGradient x1="0%" y1="0%" x2="100%" y2="100%" id="linearGradient-1">
            <stop stop-color="#32FBFC" offset="0%"></stop>
            <stop stop-color="#3214F2" offset="100%"></stop>
        </linearGradient>
        <path d="M17.9471964,-2.53875649e-15 L32.0528036,-1.08858006e-15 C38.2934348,6.32496366e-16 40.5564384,0.649779278 42.8379199,1.86992893 C45.1194014,3.09007857 46.9099214,4.88059859 48.1300711,7.16208008 C49.3502207,9.44356156 50,11.7065652 50,17.9471964 L50,32.0528036 C50,38.2934348 49.3502207,40.5564384 48.1300711,42.8379199 C46.9099214,45.1194014 45.1194014,46.9099214 42.8379199,48.1300711 C40.5564384,49.3502207 38.2934348,50 32.0528036,50 L17.9471964,50 C11.7065652,50 9.44356156,49.3502207 7.16208008,48.1300711 C4.88059859,46.9099214 3.09007857,45.1194014 1.86992893,42.8379199 C0.649779278,40.5564384 1.33465826e-15,38.2934348 -2.29706042e-15,32.0528036 L-1.33027613e-15,17.9471964 C7.72928744e-16,11.7065652 0.649779278,9.44356156 1.86992893,7.16208008 C3.09007857,4.88059859 4.88059859,3.09007857 7.16208008,1.86992893 C9.44356156,0.649779278 11.7065652,1.47509063e-15 17.9471964,-2.53875649e-15 Z" id="path-2"></path>
        <filter x="-14.0%" y="-10.0%" width="128.0%" height="128.0%" filterUnits="objectBoundingBox" id="filter-3">
            <feOffset dx="0" dy="2" in="SourceAlpha" result="shadowOffsetOuter1"></feOffset>
            <feGaussianBlur stdDeviation="2" in="shadowOffsetOuter1" result="shadowBlurOuter1"></feGaussianBlur>
            <feColorMatrix values="0 0 0 0 0.031372549   0 0 0 0 0.149019608   0 0 0 0 0.658823529  0 0 0 0.15 0" type="matrix" in="shadowBlurOuter1"></feColorMatrix>
        </filter>
    </defs>
    <g id="Dribbble" stroke="none" stroke-width="1" fill="none" fill-rule="evenodd">
        <g id="Desktop-HD" transform="translate(-1091.000000, -1278.000000)">
            <g id="Features" transform="translate(170.000000, 915.000000)">
                <g id="Group-9-Copy-2" transform="translate(800.000000, 365.000000)">
                    <g id="Group-8" transform="translate(125.000000, 0.000000)">
                        <g id="Rectangle-9">
                            <use fill="black" fill-opacity="1" filter="url(#filter-3)" xlink:href="#path-2"></use>
                            <use fill="url(#linearGradient-1)" fill-rule="evenodd" xlink:href="#path-2"></use>
                        </g>
                        <g id="smart-notifications" transform="translate(15.000000, 11.000000)" fill="#FFFFFF" fill-rule="nonzero">
                            <path d="M12.5185594,3.2432432 C12.4163201,3.6618419 12.3527691,4.095609 12.3319103,4.5405405 L3.8920058,4.5405405 C2.4591444,4.5405405 1.2972973,5.7024689 1.2972973,7.1352491 L1.2972973,20.1079942 C1.2972973,21.5408556 2.4592256,22.7027027 3.8920058,22.7027027 L16.8647509,22.7027027 C18.2976124,22.7027027 19.4594595,21.5407744 19.4594595,20.1079942 L19.4594595,11.6680897 C19.904391,11.6472309 20.3381581,11.5836799 20.7567568,11.4814406 L20.7567568,20.1079942 C20.7567568,22.2570954 19.0142464,24 16.8647509,24 L3.8920058,24 C1.7429046,24 0,22.2574896 0,20.1079942 L0,7.1352491 C0,4.9861479 1.7425104,3.2432432 3.8920058,3.2432432 L12.5185594,3.2432432 Z M19.1351351,9.7297297 C16.4483445,9.7297297 14.2702703,7.5516555 14.2702703,4.8648649 C14.2702703,2.1780742 16.4483445,0 19.1351351,0 C21.8219258,0 24,2.1780742 24,4.8648649 C24,7.5516555 21.8219258,9.7297297 19.1351351,9.7297297 Z" id="Icon"></path>
                        </g>
                    </g>
                </g>
            </g>
        </g>
    </g>
</svg>