<?xml version="1.0" encoding="UTF-8"?>
<svg width="22px" height="16px" viewBox="0 0 22 16" version="1.1" xmlns="http://www.w3.org/2000/svg" xmlns:xlink="http://www.w3.org/1999/xlink">
    <title>5585F000-94AF-45E8-B3EC-4CC89713C05A</title>
    <g id="Dribbble" stroke="none" stroke-width="1" fill="none" fill-rule="evenodd" opacity="0.200000003">
        <g id="Desktop-HD" transform="translate(-758.000000, -4332.000000)" fill="#000000">
            <g id="Footer-CTA" transform="translate(0.000000, 3691.000000)">
                <g id="Group-35" transform="translate(663.000000, 641.000000)">
                    <path d="M103.555556,11.4293878 L103.555556,4.57175513 L109.666667,8.01200086 L103.555556,11.4293878 Z M116.78,3.45167512 C116.78,3.45167512 116.564889,1.88356311 115.906111,1.19322809 C115.068889,0.286877634 114.131444,0.283448818 113.701222,0.230873634 C110.623667,0 106.006111,0 106.006111,0 L105.996333,0 C105.996333,0 101.377556,0 98.3,0.230873634 C97.8685556,0.283448818 96.9311111,0.288020573 96.0938889,1.19322809 C95.4338889,1.88356311 95.22,3.45167512 95.22,3.45167512 C95.22,3.45167512 95,5.29180656 95,7.131938 L95,8.86006143 C95,10.7001929 95.22,12.5403243 95.22,12.5403243 C95.22,12.5403243 95.4338889,14.1095793 96.0938889,14.7999143 C96.9311111,15.7051218 98.0298889,15.6765483 98.52,15.7714122 C100.28,15.9462819 106,16 106,16 C106,16 110.622444,15.9931424 113.7,15.7622687 C114.131444,15.7096935 115.068889,15.7051218 115.906111,14.7987713 C116.566111,14.1072934 116.78,12.5391814 116.78,12.5391814 C116.78,12.5391814 117,10.6990499 117,8.85891849 L117,7.131938 C117,5.29180656 116.78,3.45167512 116.78,3.45167512 Z" id="Shape"></path>
                </g>
            </g>
        </g>
    </g>
</svg>